<svg height="200px" width="200px" version="1.1" id="_x32_" xmlns="http://www.w3.org/2000/svg" xmlns:xlink="http://www.w3.org/1999/xlink" viewBox="0 0 512 512" xml:space="preserve" fill="#000000"><g id="SVGRepo_bgCarrier" stroke-width="0"></g><g id="SVGRepo_tracerCarrier" stroke-linecap="round" stroke-linejoin="round"></g><g id="SVGRepo_iconCarrier"> <style type="text/css"> .st0{fill:#45ce3b;} </style> <g> <path class="st0" d="M418.089,47.697l-15.133-24.248c3.545-2.263,5.913-6.214,5.913-10.726C408.869,5.696,403.18,0,396.147,0 H112.098C98.843,0,86.765,5.402,78.092,14.089c-8.688,8.652-14.306,20.759-14.306,33.993v422.023 c0,23.134,18.762,41.895,41.896,41.895h307.237c19.49,0,35.296-15.792,35.296-35.275V82.467 C448.215,64.742,435.099,50.24,418.089,47.697z M151.738,180.34l27.996,33.145c2.2,2.614,5.886,3.118,8.225,1.136l1.149-0.96 c2.34-1.983,2.48-5.703,0.266-8.316l-28.15-33.334c-5.676-6.718-3.293-12.169,0.616-15.469c3.909-3.3,9.682-4.736,15.357,1.983 l28.15,33.334c2.2,2.613,5.899,3.11,8.239,1.128l1.135-0.96c2.34-1.976,2.48-5.696,0.266-8.309l-27.996-33.152 c-10.159-12.029,5.66-24.682,15.581-12.926c11.896,14.082,26.441,31.309,26.441,31.309c18.341,21.565,18.412,31.12,16.408,44.355 c-1.611,10.663-4.288,18.243,7.09,31.722l3.615,4.274l-15.959,18.895l-6.292-7.433c-11.377-13.48-19.294-12.114-30.083-12.303 c-13.382-0.238-22.784-1.934-40.971-23.616c0,0-14.544-17.228-26.44-31.31C126.461,181.783,141.579,168.304,151.738,180.34z M204.829,448.226h-9.038v-27.33l-8.968,18.972h-6.46l-9.234-19.077v27.436h-9.024V400.06h8.659l12.821,27.309l12.568-27.309h8.674 V448.226z M250.115,408.376h-22.489v11.448h19.183v8.253h-19.183v11.833h22.489v8.316h-31.513V400.06h31.513V408.376z M298.315,448.226h-7.972l-19.757-30.084v30.084h-9.024V400.06h7.973l19.756,30.02v-30.02h9.024V448.226z M269.199,302.586 l15.96-18.902l47.01,55.676l-18.622,15.743L269.199,302.586z M346.601,431.656c0,2.508-0.462,4.834-1.345,6.914 c-0.897,2.088-2.158,3.896-3.741,5.367c-1.584,1.464-3.475,2.62-5.619,3.447c-2.13,0.812-4.456,1.226-6.908,1.226 c-2.438,0-4.764-0.414-6.908-1.226c-2.144-0.827-4.021-1.99-5.576-3.454c-1.57-1.472-2.816-3.272-3.699-5.36 c-0.897-2.08-1.345-4.406-1.345-6.914V400.06h9.024v31.274c0,2.823,0.77,5.051,2.298,6.613c1.541,1.583,3.572,2.347,6.207,2.347 s4.68-0.77,6.249-2.354c1.57-1.584,2.326-3.748,2.326-6.607V400.06h9.038V431.656z M367.086,181.405 c-6.418,15.644-17.95,44.347-30.841,59.627c-29.985,37.608-30.392,3.538-55.108,31.94l-69.359,82.131l-18.537-15.665l-0.309,0.182 c0,0,0.084-0.106,0.21-0.253c2.928-3.461,44.179-52.306,79.672-94.348c35.114-41.58,64.426-76.302,70.605-83.609 C356.087,146.396,377.105,157.052,367.086,181.405z M90.198,48.65v-0.568c0-5.57,2.382-11.14,6.529-15.28 c4.134-4.147,9.57-6.396,15.371-6.396h261.573l13.886,22.244H90.198z"></path> </g> </g></svg>