<?xml version="1.0" standalone="no"?>
<!DOCTYPE svg PUBLIC "-//W3C//DTD SVG 20010904//EN"
 "http://www.w3.org/TR/2001/REC-SVG-20010904/DTD/svg10.dtd">
<svg version="1.0" xmlns="http://www.w3.org/2000/svg"
 width="512.000000pt" height="512.000000pt" viewBox="0 0 512.000000 512.000000"
 preserveAspectRatio="xMidYMid meet">

<g transform="translate(0.000000,512.000000) scale(0.100000,-0.100000)"
fill="#000000" stroke="none">
<path d="M1220 4203 c-533 -59 -983 -418 -1149 -918 -52 -158 -66 -243 -66
-425 0 -176 12 -256 62 -414 144 -460 566 -827 1049 -913 l94 -17 0 -243 c0
-225 2 -247 20 -283 35 -69 125 -99 193 -64 17 9 220 143 452 298 l420 281
825 6 c786 5 829 6 915 26 552 126 946 525 1062 1073 25 118 25 382 0 500
-115 544 -512 948 -1055 1072 l-97 22 -1345 2 c-740 0 -1361 -1 -1380 -3z
m2805 -326 c412 -113 714 -442 780 -852 87 -532 -248 -1037 -783 -1183 l-97
-26 -860 -6 -860 -5 -347 -233 -348 -232 0 175 c0 156 -2 180 -20 215 -29 57
-73 76 -196 84 -614 38 -1067 588 -983 1192 63 453 436 825 895 893 32 5 658
8 1389 7 l1330 -1 100 -28z"/>
<path d="M1588 3589 c-23 -12 -46 -35 -58 -59 -19 -38 -20 -58 -20 -670 0
-612 1 -632 20 -670 23 -45 80 -80 130 -80 50 0 107 35 130 80 18 36 20 58 20
280 l0 240 150 0 150 0 0 -240 c0 -222 2 -244 20 -280 23 -45 80 -80 130 -80
50 0 107 35 130 80 19 38 20 58 20 670 0 612 -1 632 -20 670 -23 45 -80 80
-130 80 -50 0 -107 -35 -130 -80 -18 -36 -20 -58 -20 -280 l0 -240 -150 0
-150 0 0 240 c0 222 -2 244 -20 280 -37 73 -127 99 -202 59z"/>
<path d="M2788 3589 c-23 -12 -46 -35 -58 -59 -19 -38 -20 -58 -20 -670 0
-612 1 -632 20 -670 23 -45 80 -80 130 -80 50 0 107 35 130 80 19 38 20 58 20
670 0 612 -1 632 -20 670 -37 73 -127 99 -202 59z"/>
<path d="M3388 3589 c-23 -12 -46 -35 -58 -59 -19 -37 -20 -58 -20 -370 0
-312 1 -333 20 -370 23 -45 80 -80 130 -80 50 0 107 35 130 80 19 37 20 58 20
370 0 312 -1 333 -20 370 -37 73 -127 99 -202 59z"/>
<path d="M3388 2389 c-43 -22 -78 -81 -78 -129 0 -17 9 -49 20 -70 23 -45 80
-80 130 -80 76 0 150 74 150 150 0 50 -35 107 -80 130 -49 25 -94 25 -142 -1z"/>
</g>
</svg>
