<svg version="1.0"
    xmlns="http://www.w3.org/2000/svg" width="20px" height="20px" viewBox="0 0 512.000000 512.000000" preserveAspectRatio="xMidYMid meet">

    <g transform="translate(0.000000,512.000000) scale(0.100000,-0.100000)" fill="#FFFFFF" stroke="#FFFFFF" stroke-width="3">
        <path d="M2535 4979 c-86 -13 -155 -50 -218 -119 -86 -93 -99 -137 -105 -352
l-4 -178 -835 0 c-935 0 -891 3 -1037 -73 -142 -73 -259 -214 -309 -372 l-22
-70 0 -1580 0 -1580 22 -70 c78 -247 289 -418 550 -445 66 -7 659 -10 1813 -8
1621 4 1718 5 1775 22 216 65 373 214 443 420 l27 81 3 943 3 942 59 0 c158 0
285 63 358 178 63 98 62 88 62 832 0 670 0 678 -21 704 -28 36 -80 36 -108 0
-21 -26 -21 -34 -21 -698 -1 -534 -4 -679 -14 -709 -21 -57 -61 -103 -113
-128 l-48 -24 -522 -3 -523 -3 -347 -229 c-191 -127 -355 -230 -365 -230 -11
0 -30 11 -43 25 -25 24 -25 26 -25 208 0 242 19 224 -240 229 -176 3 -199 5
-235 25 -47 25 -85 64 -111 113 -18 33 -19 76 -19 935 l0 900 22 40 c25 47 64
85 113 111 34 18 82 19 1165 19 1090 0 1131 -1 1168 -19 46 -23 92 -67 114
-110 10 -20 19 -68 22 -133 7 -117 18 -137 77 -137 27 0 42 7 56 25 18 21 20
35 16 129 -9 191 -86 307 -246 372 l-57 23 -1110 1 c-610 1 -1137 -2 -1170 -7z
m-325 -1169 l0 -370 -763 0 c-508 0 -783 -4 -822 -11 -149 -27 -268 -135 -309
-280 -15 -49 -16 -181 -14 -1260 l3 -1204 22 -47 c32 -71 103 -141 176 -174
62 -28 63 -28 265 -29 l204 0 24 28 c29 34 30 56 4 90 -20 25 -20 25 -217 29
-161 3 -204 7 -229 20 -42 23 -81 71 -94 116 -8 26 -10 397 -8 1217 l3 1180
22 42 c12 22 39 55 60 72 75 62 60 61 904 61 l767 0 4 -222 c5 -247 10 -271
74 -365 39 -56 114 -113 184 -139 32 -12 90 -18 198 -22 l152 -4 0 -132 c0
-72 5 -149 11 -171 16 -56 91 -129 149 -145 92 -26 119 -13 484 230 l331 220
198 0 197 0 0 -900 c0 -975 2 -940 -53 -998 -57 -61 54 -57 -1510 -62 -1400
-5 -1429 -5 -1443 -24 -35 -48 -5 -109 58 -121 18 -3 663 -5 1433 -3 l1400 3
62 29 c73 33 143 103 176 173 l22 48 3 928 2 927 75 0 75 0 0 -907 c0 -775 -3
-917 -15 -972 -40 -168 -164 -300 -335 -358 -52 -17 -136 -18 -1760 -21 -981
-1 -1739 1 -1785 7 -197 22 -343 133 -416 316 l-24 60 -3 1540 c-2 1083 1
1556 9 1593 25 122 121 256 228 319 110 64 72 62 989 62 l832 1 0 -370z"/>
        <path d="M472 4042 c-61 -22 -114 -68 -145 -127 -16 -30 -22 -58 -22 -115 0
-64 4 -82 27 -122 124 -211 432 -161 477 77 36 191 -153 352 -337 287z m133
-147 c88 -42 71 -179 -25 -200 -60 -13 -130 44 -130 105 0 51 54 109 103 110
11 0 34 -7 52 -15z"/>
        <path d="M1056 4044 c-68 -21 -139 -94 -160 -165 -20 -65 -20 -92 -1 -155 44
-150 220 -224 362 -151 87 45 137 127 137 227 0 116 -71 213 -178 245 -61 18
-97 18 -160 -1z m141 -154 c104 -63 28 -226 -89 -191 -66 20 -95 89 -63 151
29 57 96 75 152 40z"/>
        <path d="M1640 4045 c-103 -32 -174 -131 -174 -245 0 -100 46 -176 135 -225
140 -76 319 -3 364 149 19 63 19 90 -1 155 -21 73 -92 144 -165 165 -63 19
-99 19 -159 1z m130 -150 c33 -17 60 -61 60 -97 0 -13 -9 -37 -20 -55 -43 -71
-149 -63 -186 15 -24 51 -4 109 46 134 43 22 63 22 100 3z"/>
        <path d="M1264 2216 c-48 -21 -60 -80 -24 -116 20 -20 33 -20 633 -20 603 0
614 0 632 20 25 28 23 76 -4 103 l-22 22 -592 2 c-482 2 -598 0 -623 -11z"/>
        <path d="M892 1807 c-29 -31 -28 -72 3 -102 l24 -25 775 0 775 0 27 23 c35 31
38 82 5 109 -22 17 -60 18 -805 18 l-783 0 -21 -23z"/>
        <path d="M895 1415 c-14 -13 -25 -36 -25 -50 0 -14 11 -37 25 -50 l24 -25 775
0 c426 0 782 3 791 6 10 4 23 21 30 37 16 39 3 80 -31 96 -18 8 -241 11 -795
11 l-770 0 -24 -25z"/>
        <path d="M915 1039 c-49 -27 -60 -80 -25 -117 l21 -22 538 0 c526 0 538 0 556
20 25 28 23 76 -4 103 l-22 22 -522 2 c-367 2 -528 -1 -542 -8z"/>
        <path d="M3588 4747 c-59 -23 -124 -64 -153 -99 -146 -172 -88 -429 117 -523
124 -57 278 -25 373 76 66 70 88 127 89 224 1 72 -3 88 -32 147 -36 74 -87
124 -161 159 -58 28 -179 36 -233 16z m180 -158 c164 -80 111 -337 -72 -341
-62 -1 -111 18 -145 57 -80 92 -55 231 51 284 55 27 110 27 166 0z"/>
        <path d="M3229 4005 c-88 -28 -150 -115 -150 -209 0 -132 95 -226 230 -226
l41 0 0 -150 0 -150 -50 0 c-201 0 -300 -246 -153 -381 70 -66 56 -64 518 -64
l421 0 49 25 c94 48 142 158 114 257 -23 85 -117 162 -196 163 l-33 0 0 276
c0 178 -4 290 -11 315 -16 50 -61 105 -112 132 -40 21 -54 22 -332 24 -229 2
-300 -1 -336 -12z m622 -164 c18 -22 19 -43 19 -348 l0 -324 25 -24 c21 -22
33 -25 99 -25 69 0 76 -2 95 -26 24 -31 26 -43 9 -79 -19 -43 -55 -46 -454
-43 -349 3 -373 4 -393 22 -14 13 -21 31 -21 57 0 56 24 69 133 69 80 0 90 2
112 25 l25 24 0 255 0 255 -26 20 c-23 18 -41 21 -115 21 -76 0 -92 3 -109 20
-30 30 -27 83 7 110 26 20 35 21 301 18 l274 -3 19 -24z"/>
    </g>
</svg>